<svg width="707" height="707" viewBox="0 0 707 707" fill="none" xmlns="http://www.w3.org/2000/svg">
<path d="M1.89433 317.39C-6.77301 402.504 14.3228 490.346 64.7572 559.551C85.6555 588.222 110.295 614.225 138.874 635.151C151.121 644.118 163.81 652.403 176.939 660.005C208.048 678.019 241.032 690.988 275.893 698.909C282.197 700.341 288.673 701.554 295.32 702.547C339.17 709.072 386.189 708.862 429.674 698.999C462.54 691.55 493.57 679.955 522.764 664.212C548.515 650.328 570.947 634.595 590.059 617.013C604.261 603.948 617.502 589.957 629.782 575.041C652.754 547.149 671.105 515.1 683.692 481.452C708.331 415.576 714.363 342.044 697.324 273.529C687.542 234.235 671.293 196.44 648.904 162.882C641.573 151.883 636.686 144.804 634.244 141.646C624.689 129.268 611.688 115.034 595.241 98.9442C558.39 62.9079 509.22 34.3867 460.286 18.1074C436.742 10.2826 412.033 4.37646 388.716 1.8981C361.253 -1.01998 330.137 -0.76014 301.608 3.98673C253.454 11.9881 208.719 29.0602 167.403 55.203C156.011 62.4182 147.38 68.1878 141.509 72.5116C123.839 85.513 103.74 104.93 89.6634 120.71C61.5752 152.182 39.6568 187.586 23.9082 226.92C20.1306 236.347 17.6594 243.053 16.4945 247.037C9.80155 269.872 4.31289 293.666 1.89433 317.39Z" fill="#347BFA"/>
<path d="M164.44 390V340.86H255.7V390H164.44ZM111.4 390V109.2H176.14V390H111.4Z" fill="white"/>
<path d="M519.29 605L589.1 324.2H651.5L581.69 605H519.29ZM518.51 605L448.7 324.2H511.1L580.91 605H518.51Z" fill="white"/>
<path d="M348.35 360.91V323.47C356.67 323.47 363.17 320.61 367.85 314.89C372.79 309.17 375.26 301.11 375.26 290.71H440C440 303.97 435.97 315.93 427.91 326.59C419.85 337.25 408.93 345.7 395.15 351.94C381.37 357.92 365.77 360.91 348.35 360.91ZM329.24 490V440.86H352.64V490H329.24ZM329.24 368.71V323.47H352.25V368.71H329.24ZM379.16 408.49V401.08H443.9V408.49H379.16ZM379.16 401.47C379.16 391.07 376.69 383.01 371.75 377.29C367.07 371.57 360.57 368.71 352.25 368.71V331.27C369.67 331.27 385.27 334.39 399.05 340.63C412.83 346.61 423.75 354.93 431.81 365.59C439.87 375.99 443.9 387.95 443.9 401.47H379.16ZM329.24 258.34V209.2H348.74V258.34H329.24ZM440 291.1H375.26C375.26 280.7 372.79 272.64 367.85 266.92C363.17 261.2 356.67 258.34 348.35 258.34V209.2C365.77 209.2 381.37 212.84 395.15 220.12C408.93 227.14 419.85 236.89 427.91 249.37C435.97 261.59 440 275.5 440 291.1ZM443.9 408.1C443.9 423.7 439.87 437.74 431.81 450.22C423.75 462.44 412.83 472.19 399.05 479.47C385.27 486.49 369.67 490 352.25 490V440.86C360.57 440.86 367.07 438 371.75 432.28C376.69 426.56 379.16 418.5 379.16 408.1H443.9ZM268.4 490V209.2H333.14V490H268.4Z" fill="white"/>
</svg>
